/* XPM */
static char *result[] = {
/* columns rows colors chars-per-pixel */
"45 50 105 2 ",
"   c #020202",
".  c #080707",
"X  c #070806",
"o  c #090907",
"O  c #080708",
"+  c #0A0B0A",
"@  c #0E110C",
"#  c #10120E",
"$  c #100F10",
"%  c #141413",
"&  c #191616",
"*  c #161915",
"=  c #181A17",
"-  c #141718",
";  c #151819",
":  c #1A1C1A",
">  c #221E1D",
",  c #1E221D",
"<  c #21241E",
"1  c #1F2222",
"2  c #1F2A34",
"3  c #222522",
"4  c #292525",
"5  c #262A24",
"6  c #292D26",
"7  c #232629",
"8  c #252A2C",
"9  c #2A2E29",
"0  c #322F2A",
"q  c #2A3027",
"w  c #2C322B",
"e  c #2F382E",
"r  c #31332D",
"t  c #313A2F",
"y  c #232B32",
"u  c #292F32",
"i  c #2D3434",
"p  c #2E3539",
"a  c #2F3939",
"s  c #313532",
"d  c #333B34",
"f  c #383B37",
"g  c #30373B",
"h  c #333C3C",
"j  c #3B3C3A",
"k  c #364135",
"l  c #394536",
"z  c #36403F",
"x  c #3C433C",
"c  c #3D4A3B",
"v  c #3F503E",
"b  c #424F3F",
"n  c #243646",
"m  c #253749",
"M  c #263948",
"N  c #353E41",
"B  c #3D3E40",
"V  c #374142",
"C  c #394344",
"Z  c #3C4749",
"A  c #3E4A4C",
"S  c #434543",
"D  c #464946",
"F  c #404749",
"G  c #434B4C",
"H  c #4B4D4B",
"J  c #504F4F",
"K  c #445342",
"L  c #495547",
"P  c #4D534C",
"I  c #50504F",
"U  c #424F54",
"Y  c #525353",
"T  c #575956",
"R  c #555859",
"E  c #5B5C5B",
"W  c #5D635C",
"Q  c #5E5E60",
"!  c #646464",
"~  c #686967",
"^  c #6D6D6D",
"/  c #6E786C",
"(  c #70706F",
")  c #757575",
"_  c #787777",
"`  c #777877",
"'  c #7D7D7D",
"]  c #7F807F",
"[  c #80817F",
"{  c #838383",
"}  c #888788",
"|  c #8B8B8B",
" . c #908F8F",
".. c #939393",
"X. c #9B9C9A",
"o. c #A5A5A5",
"O. c #ACACAC",
"+. c #B0AFB0",
"@. c #B4B4B4",
"#. c #BCBCBC",
"$. c #C0BFC0",
"%. c #C0C0C0",
"&. c gainsboro",
"*. c #F0EFF0",
"=. c None",
/* pixels */
"=.=.=.=.=.=.=.=.=.=.=.=.=.=.=.=.=.=.=.=.=.=.=.=.=.=.=.=.=.=.=.=.=.=.=.=.=.=.=.=.=.=.=.=.=.",
"=.=.=.=.=.=.=.=.=.=.=.=.=.=.=.=.=.=.=.=.=.=.=.=.=.=.=.=.=.=.=.=.=.=.=.=.=.=.=.=.=.=.=.=.=.",
"=.=.=.=.=.=.=.=.=.=.=.=.=.=.=.=.=.=.=.=.=.=.=.=.=.=.=.=.=.=.=.=.=.=.=.=.=.=.=.=.=.=.=.=.=.",
"=.=.=.=.=.=.=.=.g A 9 =.=.=.=.=.=.=.& =.=.=.& =.=.=.& =.=.=.=.=.=.=.w A d =.=.=.=.=.=.=.=.",
"=.=.=.=.=.=.=.=.D < 5 6 =.=.=.=.=.=.1 =.=.=.1 =.=.=.9 =.=.=.=.=.=.6 5 1 D =.=.=.=.=.=.=.=.",
"=.=.=.=.=.=.=.=.< 7 w =.=.=.=.=.5 h w h C C C V C V F I w =.=.=.=.=.w 5 3 =.=.=.=.=.=.=.=.",
"=.=.=.=.=.=.=.=.: p =.=.=.=.=.=.5 5 w 3 , , , , , 3 5 s Q =.=.=.=.=.=.p : =.=.=.=.=.=.=.=.",
"=.=.=.=.=.=.=.=.Z V d = =.=.=.=.3 9 ,               < i p =.=.=.=.: s V Z =.=.=.=.=.=.=.=.",
"=.=.=.=.=.=.=.=.i < 6 < , =.=.: 3 w +   + + & ; &     s g & =.=.1 , 6 < a =.=.=.=.=.=.=.=.",
"=.=.=.=.=.=.=.=.6 6 6 6 6 6 w : < 9 :   5 , i h R   X d g : 9 6 6 6 6 6 6 =.=.=.=.=.=.=.=.",
"=.=.=.=.=.=.=.=.3 w q 6 9 9 w : 3 6 :   5 # + # g %   d p = w 6 9 6 9 w 3 =.=.=.=.=.=.=.=.",
"=.=.=.=.=.=.=.=.: 3 3 1 1 3 3 ; : i : X - , : : % #   d g * 3 1 3 1 3 3 : =.=.=.=.=.=.=.=.",
"=.=.=.=.=.=.=.=.=.- & & - % % & : d i : .         % % d N $ % % & % % % =.=.=.=.=.=.=.=.=.",
"=.=.=.=.=.=.=.=.=.=.=.=.=.=.=.& , 5 h 7 < 3 3 3 3 3 w i i % =.=.=.=.=.=.=.=.=.=.=.=.=.=.=.",
"=.=.=.=.=.=.=.=.=.=.: : : : =.=.& 3 3 3 7 5 7 5 5 5 3 3 : =.=.: : : : =.=.=.=.=.=.=.=.=.=.",
"=.=.=.=.=.9 % % & 1 3 , , 3 3 O O + O + O . + O O O O O X + 3 3 , 1 3 , & % % w =.=.=.=.=.",
"=.=.=.=.=.=   + : : * , * * % &                         + % * * * : = , & +   % =.=.=.=.=.",
"=.=.=.=.=.< : 3 O 9 H i Z Y Y s + & 8 8 8 y 8 8 u S V 5 , r Y I Z i H 9 + 7 : < =.=.=.=.=.",
"=.=.=.=.=.=.=.=.8 J x d x S D 3 : q g h d h h d h D S z 9 < D S x f z P 4 =.=.=.=.=.=.=.=.",
"=.=.=.=.=.C q , s G # + % 5 3 = 3 q 5 5 5 5 5 5 3 < < s N % 3 5 * + # H i > w V =.=.=.=.=.",
"=.=.=.=.=.5 + + 8 Z +   > w w < 3 q 6 6 6 6 9 9 6 6 5 9 8 : e w :   + C 8 o @ 3 =.=.=.=.=.",
"=.=.=.=.=.=   + 8 B < , r & o   & : 5 w 1 : : : , 9 6 w ,   + * w , < z 9 +   : =.=.=.=.=.",
"=.=.=.=.=.5 3 , 6 z 5 6 6 < + % X   & : X       X : : : : % $ : r 6 5 V 8 : 3 3 =.=.=.=.=.",
"=.=.=.=.=.=.=.=.=.z < 5 r 3 s P &                       $ T x < 5 6 5 V =.=.=.=.=.=.=.=.=.",
"=.=.=.=.=.N 6 , 8 z 5 5 0 5 t 9 & % % % % % % - % % % % * , f w 5 5 5 h 8 : 6 z =.=.=.=.=.",
"=.=.=.=.=.,   + : - X X > w q % 9 ) w % 3 5 1 : 5 , % E E * w k : X X % > +   , =.=.=.=.=.",
"=.=.=.=.=.:   * 7 C N i 4 t k * D E f : @ , , * * @ 9 S ! 3 , K 4 i N Z 7 &   : =.=.=.=.=.",
"=.=.=.=.=.5 6 : 7 z 5 6 4 t b & 3 1 ^ ` e = 3 % 3 D } j 3 : 3 c 5 6 6 j 8 : 6 6 =.=.=.=.=.",
"=.=.=.=.=.=.=.=.=.6 6 6 5 w w s T = ^ @.#.X.X.x O.#.} f e E 3 K 4 5 6 w =.=.=.=.=.=.=.=.=.",
"=.=.=.=.g 5 w , = 6 6 6 4 w e 3 { E W ..#.*.@.~ &.o.' H X.! : K 6 5 5 9 : , w 5 a =.=.=.=.",
"=.=.=.H < 6 w % o r 6 6 r d c # f ..| {  .%.O.Y o.[ } X.) = , k 9 5 9 w + # w 6 3 H =.=.=.",
"=.=.a < 5 5 ,   X 5 < < 0 r W w + H ....} } ..D } | ..} 3 % P s 9 < < 5 X   , 5 6 < p =.=.",
"=.=.f i s i 1 ; - 7 3 7 < 9 / J + j  .@.@.O.X.P @.$.O.) : < ^ e > 7 3 7 ; : 7 i i i f =.=.",
"=.9 Y N V h Z U A N C Z 8 5 L S 3 ! E ( ' @.X.E @.| ~ E S 9 H 5 8 Z V N A U C h V h Y 9 =.",
"=.h 3 5 < 5 w V i 5 5 5 q t t 4 x { Y     D ' j 7   = ' ! e 1 e 6 5 5 5 s V w 5 , 3 5 h =.",
"=., 5 < & 5 3 , < 5 3 3 < 6 w : H } ..S w Y [ s j s { o.^ e , d 3 5 3 3 < < 3 3 : < 3 < =.",
"=.=.X X + + + + O . O O & q r : e ^ | ..{ o.X.Y  .| +.} Y < , c & . . X O + + + + O O =.=.",
"=.=.% +           . .   4 d c , , s Y ! ( | T B [ ~ E b 9 , 1 l > X X .           @ $ =.=.",
"=.=.e w :   X * % 3 3 3 9 e t , 5 , : 4 ' ! s s ' T = : < 5 : e 6 3 3 3 % - +   : w w =.=.",
"=.=.5 w 1     % : h 6 q r 6 < < 6 w @ s _ _ ~ j ' ! # , w 6 : w 9 w 5 j : %     3 9 6 =.=.",
"=.=.6 w ,   * % 7 G w 5 4 6 q , 5 q , l W ' ` f { S t , 6 6 , c 3 5 q A 7 % &   , w 9 =.=.",
"=.=.= : -   + + $ &     # r d = 5 5 q * u ' ) S ~ @ 5 q 5 3 , l &   X - # + O   - : = =.=.",
"=.=.p p %   & # 8 D y 1 < q w : , 5 q # Z ' ^ f ' * 5 q 5 1 = w < 3 y S 8 % &   * i p =.=.",
"=.=.i t ,   O X : S a e 0 t k % * , , , x x L : P 3 1 * * , , k 9 w d S : X X   , s a =.=.",
"=.=.5 6 ,   * : & 5 5 5 0 f l # l e , 5 , 5 v = * 1 3 k k : : K 0 5 5 5 * : *   , 6 5 =.=.",
"=.=.6 w ,   X O % e 6 6 6 0 d t l , , 5 , , b , * w , 5 l k 5 c 6 5 9 r % X X   , w 6 =.=.",
"=.=.* : %   = %   : : = > 3 l b , , 1 1 k l v 5 c 5 , , < c k e > : : :   % :   % = - =.=.",
"=.: Y g N g V V g h h V 7 , r d , q k q k l K 1 v q 5 q q d d 3 7 N N h g N C g h g Y : =.",
"=.Y A V 9 w w 9 w w 8 w 6 1 , < 5 q q q 3 3 e % < q q q q < < < 5 w w 9 w w 9 w 9 V A Y =.",
"=.Z 6 9 5 5 6 8 5 6 6 9 1 2 n n n M n M M n M M n n M M M M n y 1 9 5 5 5 8 6 5 5 6 6 Z =."
};
