/* XPM */
static char *result[] = {
/* columns rows colors chars-per-pixel */
"50 51 150 2 ",
"   c #090810",
".  c #0A0912",
"X  c #0B0A14",
"o  c #0C0A15",
"O  c #0C0B15",
"+  c #0C0B16",
"@  c #0D0C18",
"#  c #0F0D1A",
"$  c #0F0D1B",
"%  c #190B15",
"&  c #100E1C",
"*  c #100F1C",
"=  c #110F1E",
"-  c #11101C",
";  c #11111C",
":  c #12101F",
">  c #2A0910",
",  c #280A10",
"<  c #2E0910",
"1  c #3C0A10",
"2  c #2F101C",
"3  c #0F1423",
"4  c #0A1724",
"5  c #071925",
"6  c #121020",
"7  c #131122",
"8  c #101323",
"9  c #121222",
"0  c #141322",
"q  c #141420",
"w  c #151522",
"e  c #151324",
"r  c #161424",
"t  c #171625",
"y  c #161526",
"u  c #171627",
"i  c #1C1120",
"p  c #181625",
"a  c #181728",
"s  c #131F2F",
"d  c #191929",
"f  c #1A1829",
"g  c #1A1929",
"h  c #191A29",
"j  c #19192A",
"k  c #1C1A29",
"l  c #1A1A2C",
"z  c #1B1A2D",
"x  c #1B1B2D",
"c  c #1D1B2F",
"v  c #1C1D2F",
"b  c #1F1D31",
"n  c #1E1E31",
"m  c #1F1E31",
"M  c #1E1F31",
"N  c #291828",
"B  c #351422",
"V  c #371624",
"C  c #3D1927",
"Z  c #3A1A28",
"A  c #3B1C2A",
"S  c #201F33",
"D  c #182030",
"F  c #1E2031",
"G  c #1F2031",
"H  c #1F2133",
"J  c #1A2537",
"K  c #232133",
"L  c #222035",
"P  c #222135",
"I  c #212335",
"U  c #242235",
"Y  c #2F2031",
"T  c #252539",
"R  c #27253B",
"E  c #28273C",
"W  c #27283D",
"Q  c #28293D",
"!  c #2B293F",
"~  c #292A3F",
"^  c #480C10",
"/  c #4B0F16",
"(  c #4F0F15",
")  c #410F1C",
"_  c #570E16",
"`  c #5E0C10",
"'  c #6C0A0F",
"]  c #710B0F",
"[  c #790B0F",
"{  c #7D0A0F",
"}  c #640C10",
"|  c #670E10",
" . c #700D15",
".. c #730E15",
"X. c #790D10",
"o. c #63121C",
"O. c #74131C",
"+. c #591824",
"@. c #661620",
"#. c #6E1722",
"$. c #42292B",
"%. c #4D2739",
"&. c #2B2940",
"*. c #2A2A40",
"=. c #2D2942",
"-. c #2C2B42",
";. c #2C2C42",
":. c #2E2D44",
">. c #2F2F46",
",. c #302D46",
"<. c #322E48",
"1. c #33304A",
"2. c #35324C",
"3. c #36344E",
"4. c #393550",
"5. c #3A3753",
"6. c #413D5B",
"7. c #810B0F",
"8. c #860C0F",
"9. c #8C0C0F",
"0. c #920C0F",
"q. c #9E0B0F",
"w. c #810D10",
"e. c #850E11",
"r. c #890B10",
"t. c #910C10",
"y. c #970C10",
"u. c #9D0C11",
"i. c #9C0D11",
"p. c #AE060B",
"a. c #A20D11",
"s. c #A80C11",
"d. c #AD0C10",
"f. c #AF0D11",
"g. c #B00D11",
"h. c #B80D12",
"j. c #C00D12",
"k. c #B56A60",
"l. c #BA7265",
"z. c #BF7869",
"x. c #C37E6D",
"c. c #A78178",
"v. c #B7917A",
"b. c #C5816F",
"n. c #D5987E",
"m. c #DAA083",
"M. c #E0AE95",
"N. c #EEC4A8",
"B. c #FCE8D4",
"V. c None",
/* pixels */
"V.V.V.V.V.V.V.V.V.V.V.V.V.V.V.V.V.V.V.V.V.V.V.V.V.V.V.V.V.V.V.V.V.V.V.V.V.V.V.V.V.V.V.V.V.V.V.V.V.V.",
"V.V.V.V.V.V.V.V.V.V.V.V.V.V.V.V.V.V.V.V.V.V.V.V.V.V.V.V.V.V.V.V.V.V.V.V.V.V.V.V.V.V.V.V.V.V.V.V.V.V.",
"V.V.V.V.V.V.V.V.V.V.V.V.V.V.V.V.V.V.V.V.V.V.V.V.V.V.V.V.V.V.V.V.V.V.V.V.V.V.V.V.V.V.V.V.V.V.V.V.V.V.",
"V.V.V.V.V.V.V.V.V.V.V.V.V.V.V.V.V.V.V.V.V.V.V.V.V.V.V.V.V.V.V.V.V.V.V.V.V.V.V.V.V.V.V.V.V.V.V.V.V.V.",
"V.V.V.V.V.V.V.V.V.V.V.V.V.V.V.V.V.V.V.V.V.V.V.V.V.V.V.V.V.V.V.V.V.V.V.V.V.V.V.V.V.V.V.V.V.V.V.V.V.V.",
"V.V.V.V.V.V.V.V.V.V.V.V.V.V.V.V.V.V.V.V.V.V.V.V.V.V.V.V.V.V.V.V.V.V.V.V.V.V.V.V.V.V.V.V.V.V.V.V.V.V.",
"V.V.V.V.V.V.V.V.V.V.V.V.V.V.V.V.V.V.V.V.V.V.V.V.V.V.V.V.V.V.V.V.V.V.V.V.[ V.V.V.V.V.V.V.V.V.V.V.V.V.",
"V.V.V.V.V.V.V.V.V.V.V.V.V.V.V.V.V.V.V.V.V.V.V.V.V.V.V.V.V.V.V.V.V.V.V.V.[ V.V.V.V.V.V.V.V.V.V.V.V.V.",
"V.V.V.V.V.V.V.V.V.V.V.V.V.V.V.V.V.V.V.V.V.V.V.V.V.V.V.V.V.V.V.V.V.V.V.V.[ V.V.V.V.V.V.V.V.V.V.V.V.V.",
"V.V.V.V.V.V.V.V.V.V.V.V.V.V.V.V.V.V.V.V.V.V.V.V.V.V.V.V.V.V.V.V.V.V.V.V.[ [ V.V.V.V.V.V.V.V.V.V.V.V.",
"V.V.V.V.V.V.V.V.V.V.V.V.V.V.V.V.V.V.V.V.V.V.V.V.V.V.V.V.V.V.V.V.V.V.V.[ [ g.7.V.V.V.V.V.V.V.V.V.V.V.",
"V.V.V.V.V.V.V.V.V.V.V.V.V.V.V.V.V.V.V.V.V.V.V.7 L z V.V.V.V.V.V.V.V.V.[ t.j.t.[ V.V.V.V.V.V.V.V.V.V.",
"V.V.V.V.V.V.V.V.V.V.V.V.V.V.V.V.V.V.V.V.V.V.7 <.J s h V.V.V.V.V.V.V.V.[ j.j.g.r.[ V.V.V.V.V.V.V.V.V.",
"V.V.V.V.V.V.V.V.V.V.V.V.V.V.V.V.V.V.V.V.V.V.<.5 5 5 7 h V.V.V.V.V.V.V.[ j.j.j.j.[ [ V.V.V.V.V.V.V.V.",
"V.V.V.V.V.V.V.V.V.V.V.V.V.V.V.V.V.V.V.V.V.7 <.5 ..3 p.h V.V.V.V.V.V.7.i.| X.q.d.s.[ V.V.V.V.V.V.V.V.",
"V.V.V.V.V.V.V.V.V.V.V.V.V.V.V.V.V.V.V.V.V.7 <.5 4 9 7 h V.V.V.V.V.V.t.e.| ] { q.s.[ V.V.V.V.V.V.V.V.",
"V.V.V.V.V.V.V.V.V.V.V.V.V.V.V.V.V.6.V.V.@ 7 <.D 8 7 v m V.V.V.V.V.V.t.e.9.' > } s.[ V.V.V.V.V.V.V.V.",
"V.V.V.V.V.V.V.V.V.V.V.V.V.V.V.V.V.>.>.;.d t r <.&.v & p @ = V.V.V.V.t.j.^ 0.8.w.u.V.V.V.V.V.V.V.V.V.",
"V.V.V.V.V.V.V.V.V.V.V.V.V.V.V.V.V.,.,.2.P Q g L = = k U & = + V.V.V.r.h.  ` 9.f.[ V.V.V.V.V.V.V.V.V.",
"V.V.V.V.V.V.V.V.V.V.V.V.V.V.V.V.6.n n :.1.V Z ;.0 E L & & = o V.V.V.[ r.  1 a.y.V.V.V.V.V.V.V.V.V.V.",
"V.V.V.V.V.V.V.V.V.V.V.V.V.V.V.V.I I a <.7 7  .q.;.L 7 ^   & 7 7 V.V.V.[   < [ V.V.V.V.V.V.V.V.V.V.V.",
"V.V.V.V.V.V.V.V.V.V.V.V.V.V.V.V.7 x x j B o.Y a @.%./ i % o + : V.V.V.V.  V.V.V.V.V.V.V.V.V.V.V.V.V.",
"V.V.V.V.V.V.V.V.V.V.x.M.B.N.V.V.V.x e y M N o.O.Y %.7 ( V.V.# p 4.V.V.    V.V.V.V.V.V.V.V.V.V.V.V.V.",
"V.V.V.V.V.V.V.V.V.V.b.v.c.b.$.V.V.j y 7 V.M A ) +.Q / 2 V.V.- G ;.6.V.    V.V.V.V.V.V.V.V.V.V.V.V.V.",
"V.V.V.V.V.V.V.V.V.V.k.l.m.n.V.V.a =.,.V.V.V.l I B _ 7 V.V.V.V.I I 3.V.    V.V.V.V.V.V.V.V.V.V.V.V.V.",
"V.V.V.V.V.V.V.V.V.V.V.z.m.k.V.v a ,.W V.V.V. .a &.7 / V.V.V.V.V.Q I I   V.V.V.V.V.V.V.V.V.V.V.V.V.V.",
"V.V.V.V.V.V.V.V.V.V.V.V.V.V.V.~ 7 *.V.V.V.V.C  .#./ ,   V.V.V.V.5.I !   V.V.V.V.V.V.V.V.V.V.V.V.V.V.",
"V.V.V.V.V.V.V.V.V.V.V.V.V.V.W ,.3.V.V.V.7 a M a f X + X V.V.V.V.V.;.T * V.V.V.V.V.V.V.V.V.V.V.V.V.V.",
"V.V.V.V.V.V.V.V.V.V.V.V.a V.:.S I V.V.V.a j j v K = a &   V.V.V.V.6.&.j V.V.V.V.V.V.V.V.V.V.V.V.V.V.",
"V.V.V.V.V.V.V.V.V.V.V.V.I v S M V.V.V.7 M y v <.+ j a 6 X V.V.V.V.V.$ w V.V.V.V.V.V.V.V.V.V.V.V.V.V.",
"V.V.V.V.V.V.V.V.V.V.V.V.V.I I V.V.V.7 7 a v v   a I 7 7 +   V.V.V.V.V.V.V.V.V.V.V.V.V.V.V.V.V.V.V.V.",
"V.V.V.V.V.V.V.V.V.V.V.V.V.V.V.V.V.V.j j a v c + = 7 a 7 # . V.V.V.V.V.V.V.V.V.V.V.V.V.V.V.V.V.V.V.V.",
"V.V.V.V.V.V.V.V.V.V.V.V.V.V.V.V.V.V.7 v e S R v + j I j 7 + V.V.V.V.  V.V.V.V.V.V.V.V.V.V.V.V.V.V.V.",
"V.V.V.V.V.V.V.V.V.V.V.V.V.V.V.V.V.V.j j c =.n V.+ v V.H y + V.V.V.V.  V.V.V.V.V.V.V.V.V.V.V.V.V.V.V.",
"V.V.V.V.V.V.V.V.V.V.V.V.V.V.V.V.V.V.V.7 <.b T V.O V.V.F F ; V.V.V.V.  V.V.V.V.V.V.V.V.V.V.V.V.V.V.V.",
"V.V.V.V.V.V.V.V.V.V.V.V.V.V.V.V.V.V.V.7 -.j u V.V.V.I w w q V.V.V.V.V.V.V.V.V.V.V.V.V.V.V.V.V.V.V.V.",
"V.V.V.V.V.V.V.V.V.V.V.V.V.V.V.V.V.V.7 j I v V.V.V.V.; = + h V.V.V.  V.V.V.V.V.V.V.V.V.V.V.V.V.V.V.V.",
"V.V.V.V.V.V.V.V.V.V.V.V.V.V.V.V.V.V.v I v 7 V.V.V.  7 &     V.V.V.  V.V.V.V.V.V.V.V.V.V.V.V.V.V.V.V.",
"V.V.V.V.V.V.V.V.V.V.V.V.V.V.V.V.V.V.l H 7 7 V.V.V.V.&       V.V.V.  V.V.V.V.V.V.V.V.V.V.V.V.V.V.V.V.",
"V.V.V.V.V.V.V.V.V.V.V.V.V.V.V.V.V.V.v j 7 V.V.V.V.V.      V.V.V.V.V.V.V.V.V.V.V.V.V.V.V.V.V.V.V.V.V.",
"V.V.V.V.V.V.V.V.V.V.V.V.V.V.V.V.V.V.I a V.V.V.V.V.      V.V.V.V.  V.V.V.V.V.V.V.V.V.V.V.V.V.V.V.V.V.",
"V.V.V.V.V.V.V.V.V.V.V.V.V.V.V.V.V.V.M y V.V.V.V.V.V.    V.V.V.V.V.V.V.V.V.V.V.V.V.V.V.V.V.V.V.V.V.V.",
"V.V.V.V.V.V.V.V.V.V.V.V.V.V.V.V.V.I a 7 V.V.V.V.V.V.  = V.V.V.V.V.V.V.V.V.V.V.V.V.V.V.V.V.V.V.V.V.V.",
"V.V.V.V.V.V.V.V.V.V.V.V.V.V.V.V.V.M e 7 V.V.V.V.V.V.V.7 V.V.V.V.V.V.V.V.V.V.V.V.V.V.V.V.V.V.V.V.V.V.",
"V.V.V.V.V.V.V.V.V.V.V.V.V.V.V.V.V.v 7 V.V.V.V.V.V.V.V.V.V.V.V.V.V.V.V.V.V.V.V.V.V.V.V.V.V.V.V.V.V.V.",
"V.V.V.V.V.V.V.V.V.V.V.V.V.V.V.V.V.x 7 V.V.V.V.V.V.V.V.V.V.V.V.V.V.V.V.V.V.V.V.V.V.V.V.V.V.V.V.V.V.V.",
"V.V.V.V.V.V.V.V.V.V.V.V.V.V.V.V.V.V.V.V.V.V.V.V.V.V.V.V.V.V.V.V.V.V.V.V.V.V.V.V.V.V.V.V.V.V.V.V.V.V.",
"V.V.V.V.V.V.V.V.V.V.V.V.V.V.V.V.V.V.V.V.V.V.V.V.V.V.V.V.V.V.V.V.V.V.V.V.V.V.V.V.V.V.V.V.V.V.V.V.V.V.",
"V.V.V.V.V.V.V.V.V.V.V.V.V.V.V.V.V.V.V.V.V.V.V.V.V.V.V.V.V.V.V.V.V.V.V.V.V.V.V.V.V.V.V.V.V.V.V.V.V.V.",
"V.V.V.V.V.V.V.V.V.V.V.V.V.V.V.V.V.V.V.V.V.V.V.V.V.V.V.V.V.V.V.V.V.V.V.V.V.V.V.V.V.V.V.V.V.V.V.V.V.V.",
"V.V.V.V.V.V.V.V.V.V.V.V.V.V.V.V.V.V.V.V.V.V.V.V.V.V.V.V.V.V.V.V.V.V.V.V.V.V.V.V.V.V.V.V.V.V.V.V.V.V."
};
