/* XPM */
static char *result[] = {
/* columns rows colors chars-per-pixel */
"50 53 237 2 ",
"   c #010103",
".  c #02050B",
"X  c #08060A",
"o  c #05080D",
"O  c #0B0A0D",
"+  c #110F0F",
"@  c #020612",
"#  c #040A14",
"$  c #0B0C13",
"%  c #030C1B",
"&  c #0B0E1A",
"*  c #010719",
"=  c #110F13",
"-  c #0C121C",
";  c #09111A",
":  c #131215",
">  c #13131C",
",  c #1B181D",
"<  c #030D23",
"1  c #0C0E22",
"2  c #041225",
"3  c #0C1423",
"4  c #04132B",
"5  c #0A152A",
"6  c #0C1A2C",
"7  c #03182D",
"8  c #121623",
"9  c #131A25",
"0  c #1B1A24",
"q  c #141D2C",
"w  c #1D1E2A",
"e  c #031632",
"r  c #051A35",
"t  c #0C1C34",
"y  c #061D3B",
"u  c #151F32",
"i  c #211D23",
"p  c #221F2A",
"a  c #1D222E",
"s  c #15232E",
"d  c #0C223C",
"f  c #142334",
"g  c #1B2333",
"h  c #17283C",
"j  c #242126",
"k  c #24222B",
"l  c #2B262C",
"z  c #2C262A",
"x  c #232533",
"c  c #2C2934",
"v  c #282A37",
"b  c #322C32",
"n  c #362F37",
"m  c #35313C",
"M  c #3A343C",
"N  c #393136",
"B  c #302A2D",
"V  c #24201F",
"C  c #443A3C",
"Z  c #042443",
"A  c #0B2344",
"S  c #0A2845",
"D  c #0D2B4D",
"F  c #0E254C",
"G  c #1B2C43",
"H  c #162C47",
"J  c #1D324D",
"K  c #143448",
"L  c #0D2A53",
"P  c #102953",
"I  c #102D5B",
"U  c #173757",
"Y  c #0E3153",
"T  c #2C3444",
"R  c #26354A",
"E  c #3D3641",
"W  c #3B3945",
"Q  c #343B4C",
"!  c #363846",
"~  c #2D3C54",
"^  c #233B56",
"/  c #333C52",
"(  c #282F41",
")  c #0B3766",
"_  c #163966",
"`  c #0F376D",
"'  c #112E52",
"]  c #453B44",
"[  c #483E47",
"{  c #28425C",
"}  c #374459",
"|  c #164577",
" . c #1A4D71",
".. c #294668",
"X. c #374B65",
"o. c #33536B",
"O. c #3D566B",
"+. c #3A577B",
"@. c #294F73",
"#. c #3F687E",
"$. c #4C424B",
"%. c #494249",
"&. c #52454C",
"*. c #55494E",
"=. c #5A4B4E",
"-. c #504446",
";. c #444B5C",
":. c #484858",
">. c #544B53",
",. c #5B4D53",
"<. c #584E5A",
"1. c #5A525A",
"2. c #64555C",
"3. c #6C5B5D",
"4. c #65565B",
"5. c #6C5959",
"6. c #464D61",
"7. c #485468",
"8. c #595866",
"9. c #585E73",
"0. c #4D596C",
"q. c #675B63",
"w. c #725E63",
"e. c #49667B",
"r. c #5B6476",
"t. c #5A626D",
"y. c #69626B",
"u. c #756264",
"i. c #7B656A",
"p. c #7D696B",
"a. c #7B6666",
"s. c #646474",
"d. c #6A6878",
"f. c #766D75",
"g. c #74707C",
"h. c #6F717E",
"j. c #846C6D",
"k. c #856A69",
"l. c #856E71",
"z. c #887576",
"x. c #927574",
"c. c #957B7B",
"v. c #9A7D7D",
"b. c #947876",
"n. c #83706D",
"m. c #9C817D",
"M. c #A1867D",
"N. c #164C83",
"B. c #18518A",
"V. c #1A5993",
"C. c #275A87",
"Z. c #2D598C",
"A. c #3A6798",
"S. c #33628F",
"D. c #1B6DB2",
"F. c #2574AB",
"G. c #2475B5",
"H. c #367DB5",
"J. c #466788",
"K. c #486A95",
"L. c #52728C",
"P. c #6A7584",
"I. c #787987",
"U. c #647A98",
"Y. c #606C81",
"T. c #4E7DB1",
"R. c #4774A3",
"E. c #405682",
"W. c #857984",
"Q. c #917F80",
"!. c #3283BB",
"~. c #758394",
"^. c #7F8289",
"/. c #4C89B3",
"(. c #6795B7",
"). c #6D91AF",
"_. c #2A95DC",
"`. c #308CD2",
"'. c #2E95DC",
"]. c #598BC2",
"[. c #5D97C7",
"{. c #4796D1",
"}. c #6898D2",
"|. c #52A2D0",
" X c #68A5C9",
".X c #78A4CD",
"XX c #78ABD8",
"oX c #73B6D1",
"OX c #48A7E7",
"+X c #5AB7ED",
"@X c #52B5F0",
"#X c #6EA8E3",
"$X c #76A8E3",
"%X c #69BBEB",
"&X c #7AB5EA",
"*X c #69B8F5",
"=X c #4398E0",
"-X c #7BC5F6",
";X c #7AD4FA",
":X c #5BC0F9",
">X c #84818B",
",X c #998585",
"<X c #898895",
"1X c #998B91",
"2X c #919098",
"3X c #A68A85",
"4X c #AD918B",
"5X c #B3958D",
"6X c #A8999C",
"7X c #BB9C96",
"8X c #A08D93",
"9X c #BBA297",
"0X c #849AB2",
"qX c #AB9CA1",
"wX c #99A7BB",
"eX c #B5A4A3",
"rX c #A7A4AC",
"tX c #C5A59B",
"yX c #CAA89A",
"uX c #C8ADA9",
"iX c #D9B8AB",
"pX c #C9B3B6",
"aX c #DABAB5",
"sX c #D0B4A9",
"dX c #EBC6B6",
"fX c #87BAD6",
"gX c #86BAE6",
"hX c #88C9F7",
"jX c #97CBF4",
"kX c #86D5FC",
"lX c #9AD7FE",
"zX c #8DCEE7",
"xX c #8DE1FA",
"cX c #9BE8FA",
"vX c #B1F0FC",
"bX c #A0D7F8",
"nX c None",
/* pixels */
"nXnXnXnXnXnXnXnXnXnXnXnXnXnXnXnXnXnXnXnXnXnXnXnX,   nXnXnXnXnXnXnXnXnXnXnXnXnXnXnXnXnXnXnXnXnXnXnXnX",
"nXnXnXnXnXnXnXnXnXnXnXnXnXnXnXnXnXnXnXnXnXnX  z 3Xj     nXnXnXnXnXnXnXnXnXnXnXnXnXnXnXnXnXnXnXnXnXnX",
"nXnXnXnXnXnXnXnXnXnXnXnXnXnXnXnXnXnXnXX =.4.M > j $ > E ,.-.$ nXnXnXnXnXnXnXnXnXnXnXnXnXnXnXnXnXnXnX",
"nXnXnXnXnXnXnXnXnXnXnXnXnXnXnXnXnXnX$ 7XdXx.E a > 0 w W v.iX4X+ nXnXnXnXnXnXnXnXnXnXnXnXnXnXnXnXnXnX",
"nXnXnXnXnXnXnXnXnXnXnXnXnXnXnXnXnX  # z.2.v 5 o     # 3 g y.p.=   nXnXnXnXnXnXnXnXnXnXnXnXnXnXnXnXnX",
"nXnXnXnXnXnXnXnXnXnXnXnXnXnXnX. . . 3 q.1X8.J % * % % G 8.W.:.- . . . nXnXnXnXnXnXnXnXnXnXnXnXnXnXnX",
"nXnXnXnXnXnXnXnXnXnXnXnXnX  8 6.7.J ~ 1.m -             % v <.} R X./ &   nXnXnXnXnXnXnXnXnXnXnXnXnX",
"nXnXnXnXnXnXnXnXnXnXnXnX% <.qX1XX.q % p c > . > j p > . & 6 2 % q / d.I.W % nXnXnXnXnXnXnXnXnXnXnXnX",
"nXnXnXnXnXnXnXnXnXnX. 0 1XaXaX6.& b 4X,X] & N p.[ [ q.l $ x [ w.0 2 / Q.W.s.5   nXnXnXnXnXnXnXnXnXnX",
"nXnXnXnXnXnXnXnXnX  % 9XdXeX8.@ i 4XiX5.= l 4X[ = > W w.i $ N v.i.0 # ! g.W.s.@   nXnXnXnXnXnXnXnXnX",
"nXnXnXnXnXnXnXV : . & 8.M > 3.a.v v >   . k.l.g X X w <.*..   : k v ,.] 1 x Q $ . : , nXnXnXnXnXnXnX",
"nXnXnXnXnXnXV iXiXj.c k E tXiXu.& . @ . = ,X%.- . X % m 2.$ . .   $ ] x.i.E p x *.b.c.p nXnXnXnXnXnX",
"nXnXnXnXnXnX. m.iX7Xw.$.[ u.C   @ ! s.r 1 2.a ! ! Q T 9 E * < J h .   0 ] E ] ,.a.b.3.$ nXnXnXnXnXnX",
"nXnXnXnXnXnX. o j j 8 - $ . . m 1XpXr.U 4 Q W.;.g u T / g % A J r.6.a .   o & > 0 0 X   nXnXnXnXnXnX",
"nXnXnXnXnXo 1.2.N 9 ; # @ 5 Q pXaXP.r Z 3 ,Xg.G 5 3 f } } # e < / s.r.H 5 . @ % 1 p W ! $ nXnXnXnXnX",
"nXnXnXnX$ f.aXaXiXaXuX7.D U d.<X} e .   : qXh.H q t A / 7.$   . < A X.} D S ~ 9.s.d.g.W.:.# nXnXnXnX",
"nXnXnXnXm uXaX6Xr.7.D Z Y ^ ..d < g g 5 8 <X0.; . . % ^ O.& % 5 3 # 2 S Y S Z Z ~ X.s.W.g.h nXnXnXnX",
"nXnXnXX q d.d.;.J d d r d 7 2 s h.2X0.^ 6 x 3 6 h f ; # 8 2 G ^ ;.T - # % 7 4 4 e d / ;.6.q X . nXnX",
"nXnX, 5.$ o $ @ . @ .     ; 1.6XeXh.o.o.U % G o.o.o.o.f # H ..{ O.6.} g .       .   . @ # $ =., nXnX",
"nXnXz iX3X]         + C ,XsXsXeX7.S./.T.+.t o.R.@.| S.+.A A.].[.+.m ;.<.q.<.B o       X N j.5XB nXnX",
"nXnXX n.sXyX=.B b 3.5XuXsXeXf.g o f T.#X[...J $X$X}.}.J U T.K.X.- . 9 m 1.f.p.3.[ z c [ b.3X3.X nXnX",
"nXnXnX> W 2.%.%.w.tXyXz.;.q #     . ; U ^ J < G K.L.h # & & # .       . 8 v >.p.k.=.E [ >.C - nXnXnX",
"nXnXnX    = 9 f f g f s #   . f # 3 /.=XG.B.A *     # r L D.`./.; . 3     X & 8 9 q q 8 $     nXnXnX",
"nXnXnX  X $ O   . .       % ~ L.@ C.cX:X_.D.` L t t P ) ` `.@X;XC.o E.h @       .     $ $ .   nXnXnX",
"nXnXnX  0 w &   @ X . < X s ~.~..  XvX@X_.V.) Y P I P ) | H.OXkX/.. O.0.3   *     .   $ x w   nXnXnX",
"nXnXnX  >.! $ * e 5 P I 2 } wXR.% zXvX@X`.N.Y D F F D L | G.OXxX%X# ..~.( @ Z r * * @ o m $.  nXnXnX",
"nXnXnX. l.[ @ ( W.I.e.H # r.wXA.6 hXvX@XG.D ; # # @ . ; d  .{.xX%X3 ..).6.@ e S Y U 5 . E u.X nXnXnX",
"nXnXnXO v.2.@ g.qX9.1 * % <XwXA.5 hXzX .2 s e.fXzXfX(.#.h 7 U  X*X6 ^ ).r.# @ @ 5 R J o ,.b.O nXnXnX",
"nXnXnX+ 3X2.X g.:.1 5 4 T rX0X/.3 A.f 3 J.cXvXcXzXzXzXxX;X(. .K C.4 @.(.I.x % r 4 % t . ,.v.+ nXnXnX",
"nXnXnXO 3Xw.. ( * :.O.4 d.6XU.}.# % h oXcXoXA. .) ) _ | !.-X;X/.4 < J.).~.0.# H U h . X 5.v.X nXnXnX",
"nXnXnX  x.l.. @ ;.P.f G 6XI.L.#XJ ..zXhX|.B.P L D D D L  .D.%X;XZ.< /.).Y.^.g 4 D ^ 6 o j.j.  nXnXnX",
"nXnXnX  q.c.= * I./ < z.6XO.0.#XK.C.lX-X_.V.P F D D D D | !.+XxXC.t &XL.X.~.y.% r ~ q & x.w.  nXnXnX",
"nXnXnX  C v.z # 8.8 1.1X0.U O..X&X_ gXlXOXD.) F P P P I V.`.;X-XU J.jXO.H 7.I.%.% S . l ,XC   nXnXnX",
"nXnX  n j z.-.. = $.,Xf.R f x ).gXA.[.lX+X`.B.A y d A | F.=XkX{.A XXgXh 5 H s.z.M @ . -.l.i b   nXnX",
"nXnXO M.N -.-., *.4XQ.Q 5   o d.gX$X@.*X*X`.` % o # # U F.*X*X_ S.jX(.X   % ( p.,X-.> -.&.n M.. nXnX",
"nXnXO 3Xa.0 j u.5Xm./ t . . . ;.0XhX].V.`._ 5 O.L.J.o.D F !.Z.A .XjXe.    . 3 ! l.3Xa.j 0 k.5X  nXnX",
"nXnXnXa.yX5X7X7Xi.! u % H Z @ ! 2X.XhXS.t H  XcX;X+X@X@X| r 4 (.jXgX}   # r % 3 v z.yXyX7XyXk.nXnXnX",
"nXnXnXi m.tXm.*.w - . ^ J < 4 ! <XL.&XhX{ B.=X'.`._._.=XV.e J.lXgX).Q 4 . e D . $ a &.3XyXM.j nXnXnX",
"nXnXnXnX  $     O 0 % } % } X.:.>XX.Z.hXgX| ) D._._.D.) t J.lX.XX.~.6.D A @ S X 0 X     + o nXnXnXnX",
"nXnXnXnXnXnXX > *.,.9 & 1 0.h 8.z.T h (.hX}.U A Z L Z 7 ~ jXXXJ G P.t.y U 7 % 8 >.4.0   nXnXnXnXnXnX",
"nXnXnXnXnXnX  0 x.c.>.> # 9 9 z.y.9 o J ).kXjX(.G * @ { &XXX` . 3 t.>X4 r 4 & $.3X3X>   nXnXnXnXnXnX",
"nXnXnXnXnXnX    [ 3Xv.4.x $ ,.l.E o S % } 0XzXjX/ % ^ ].&X@.% Z # v y.:.@ 8 >.5XyX*..   nXnXnXnXnXnX",
"nXnXnXnXnXnX  B 0 %.j.w.0 b i.8.3 % U % > h.r.0.q 6 E.L.U.& @ Z 2 ; %.i.l > j.m.*.0 l   nXnXnXnXnXnX",
"nXnXnXnXnXnXnXN i.E j p M w.w.c   d 7 < % y.y.R $ 1 J 9.8.< Z # 2   p q.u.N w j &.m.C nXnXnXnXnXnXnX",
"nXnXnXnXnXnXnX> 3.z.k.k.j.i.W $ . @ . 7.Q 8.y.q # & u q.1.7 _ < . . o c p.3X3X4X5Xn., nXnXnXnXnXnXnX",
"nXnXnXnXnXnXnXnX= N ,.4.,.m = $ ,.B @ ~ a q.w.- o X 3 q.2.& ; . 9 m X $ M i.u.3.C : nXnXnXnXnXnXnXnX",
"nXnXnXnXnXnXnXnXnX  $ = =     *.x.i.] o & i.q.o     . >.i.$ o c $.<.]     O : $   nXnXnXnXnXnXnXnXnX",
"nXnXnXnXnXnXnXnXnXnXnXnXnXnX  O &.3.] & ,.j.N - c k & a u.&.& k ,.&.$   nXnXnXnXnXnXnXnXnXnXnXnXnXnX",
"nXnXnXnXnXnXnXnXnXnXnXnXnXnXnX  0 c w $.p.&.& l <.[ 0 $ M j.[ p m 0   nXnXnXnXnXnXnXnXnXnXnXnXnXnXnX",
"nXnXnXnXnXnXnXnXnXnXnXnXnXnXnX  b b.x.2.] > p ,.c b ,.0 & [ 5.3X4XN   nXnXnXnXnXnXnXnXnXnXnXnXnXnXnX",
"nXnXnXnXnXnXnXnXnXnXnXnXnXnXnXnXo [ 5.j     z b.x.x.c.B   X B 3.-.o nXnXnXnXnXnXnXnXnXnXnXnXnXnXnXnX",
"nXnXnXnXnXnXnXnXnXnXnXnXnXnXnXnXnX      nXnXnXb ,.=.n nXnXnX      nXnXnXnXnXnXnXnXnXnXnXnXnXnXnXnXnX",
"nXnXnXnXnXnXnXnXnXnXnXnXnXnXnXnXnXnXnXnXnXnXnXnX.   nXnXnXnXnXnXnXnXnXnXnXnXnXnXnXnXnXnXnXnXnXnXnXnX"
};
