/* XPM */
static char *result[] = {
/* columns rows colors chars-per-pixel */
"50 50 59 1 ",
"  c black",
". c #010102",
"X c gray1",
"o c #010101",
"O c #040406",
"+ c #000001",
"@ c #050507",
"# c gray5",
"$ c #101010",
"% c #0B0B0C",
"& c #030305",
"* c #0C0C0D",
"= c #0B0B0D",
"- c #0A0A0B",
"; c #0D0D0E",
": c gray7",
"> c gray8",
", c #111112",
"< c #020202",
"1 c #111111",
"2 c #0B0B0B",
"3 c gray4",
"4 c gray2",
"5 c #0C0C0C",
"6 c #040404",
"7 c #060606",
"8 c #0E0E0E",
"9 c #020203",
"0 c #060607",
"q c #050506",
"w c #030304",
"e c #0A0A0D",
"r c #070708",
"t c #0E0E10",
"y c #07070A",
"u c gray3",
"i c #070709",
"p c #050508",
"a c #080809",
"s c #060609",
"d c #07070B",
"f c #0D0D10",
"g c #040407",
"h c #040405",
"j c #060608",
"k c #121214",
"l c #09090A",
"z c #030306",
"x c #08080A",
"c c #101011",
"v c #070707",
"b c #08080B",
"n c #030307",
"m c #0A0A0C",
"M c #09090B",
"N c #09090C",
"B c #010103",
"V c #090909",
"C c #020204",
/* pixels */
"    .XXXXXXXXXXXXXXXXXXXX.  oXXXXXXXXXXXXXXXXXXXXo",
"   .XXXXXXXXXXXXXXXXXXXX.  oXXXXXXXXXXXXXXXXXXXXoO",
"  +@#$$$$$$$$$$$$$$$$$$%& oO*$$$$$$$$$$$$$$$$$$=O-",
"  o;:>>>>>>>>>>>>>>>>>>,-o<*:>>>>>>>>>>>>>>>>>>:-#",
"  <:>>>>>>>>>>>>>>>>>>>:#oX$>>>>>>>>>>>>>>>>>>>>##",
"  <:>>>1#2222222222#:>>:#oX$>>>1#2222222222#:>>>##",
"  <:>>13Xoooooooooo45:>:#oX$>>12XooooooooooX5:>>##",
"  <:>>56o<X666666X.<7#>:#oX$>>#6o.X666666X.<68>>##",
"  <:>>3X905$$$$$$-@&q#>:#oX$>>5X.@%$$$$$$%0&w8>>##",
"  <:>>26@*:::::::,e@rt>:#oX$>>#wO=:>>>>>>:*@@$>>##",
"  <:>>*@yt:8uuuu$:*@i$>:#oX$>>#@it>>>>>>>>;Op$>>#a",
"  <:>>*sdt:5XXXX;:5Oi$>:#oX$>>fsyt>>>>>>>>#w@$>1a@",
"  <:>>;sdt:#ggggt:5hr$>:#oX$>>fsyt>>>>>>>>#w@$>;@O",
"  <:>>*jyt:;ggggt:5hr$>:#oX$>>;jit>>>>>>::#w@$>;O@",
"  <:>>2Oit:fiiii$k5hr$>:#oX$>>#Ojt>>>>>,;t#w@$>;@3",
"  <:>>3hrf:,tttt::2hr$>:#oX$>>5w@f:>>>:;;$#w@$>,3#",
"  <:>>-hOl$>>>>>>#rzi$>:#oX$>>5wOx$>>>:tc$v&j$>>##",
"  <:>>%@zOr555555vzgy$>:#oX$>>#qzzr555555r&gs$>>##",
"  <:>>tbpn&999999&gpmc>:#oX$>>$bpg&999999wgpb$>>##",
"  <:>>:tMisjjjjjjsiec:>:#oX$>>k$Nirjjjjjjsib$:>>#5",
"  <1k>>:,cccccccccc::>>:#o<8>>>:,cccccccccc,:>>k5r",
"  oy1>>>>>>>>>>>>>>>>>:t0+.r$>>>>>>>>>>>>>>>>>>$rX",
"   Xx%====%-uu========mrB  9i=-aV-=============rXo",
"   +X&&&&&wX<9&&&&&&&&w9   +X&X<<w&&&&&&&&&&&&&9o ",
"    +oooooo+  oooooooo++    +o+  +ooooooooooooo+ .",
"   .wh44444444444444446Xo  oX644444444444444444X.O",
"  +@5#8888888888888888#M& +O2#88888888888888888-Ox",
"  o*:>>>>>>>>>>>>>>>>>kclo<%,>>>>>>k::::::::>>>cxa",
"  <:>>>>::::::::::::>>>:#oX$>>:::::$*******;:::$aw",
"  <:>>>18##########8:>>:#oX$>$####5a&&&&&&&@2##iw ",
"  <:>>:2Xo<666666< 4#:>:#oX$>3< o..............+ o",
"  <:>>2XoX2::::::VXo4#>:#oX$>3<9gppppppppppppppwo&",
"  <:>>3&0#:>>>>>>:%Oq#>:#oX$>3Xrt::::::::::::::=&O",
"  <:>>3v#:>>>>>>>>,2v#>:#oX$>3w@iv7777v$>>$vv$>#OO",
"  <:>>3V55V-f>>>5Vlvv#:$ioX$>3wggz&&&&@t>>t@@$>;Ow",
"  <:>>3V2v9wrt:#4<w&q#:;O X$>#-==emmxgj$>>1=*1>*wX",
"  <:>>%-#37vvr#3v7@&q#:*& X$>:1$#%%%x@s$>>1**1>2XX",
"  <:>>*l#8#5390#5%i&q#:f@ X$>>>$rqqq@gs$>>$vv$>2Xw",
"  <:>>%0u5558w0$Va0&0tk1-oX$>>>8h9O@@sbc>>$rr$>*wO",
"  <:>>3w&00V1%**h99&i$>:#oX$>>>84zb===#,>>1**,>;OO",
"  <:>>2h&zv#::;=O.9gy$>:#oX$>>>84zM*%2*1>>15*1>;OO",
"  <:>>5@ni#1$cO;r9Xgy$>:#oX$>>>8q&gz99&8>>;w&8>;OO",
"  <:>>fypsMV4#oz<+CgM$>:#oX$>>>$v@iijgs$>>$yxc>;OO",
"  <:>>>tyn9  o   wgbc>>:#oX$>>>>::::tss$>>>kk>>;OO",
"  <:>>>:,1$-O0$$$$1:k>>:#oX$>>>>>>>>#hj$>>8778>;OO",
"  ox1>>>>>:1t$:>>>>>>>:tv+oic>>>>>>>#X@$>>t@@t>;OX",
"   XM===%3V-===========i9  Xx======2v<wx==****=rXo",
"   +whOO&X9wOOOOOOOOOO&X+  +wOOOOOOw<+.wOO0ll0OXo ",
"    +o..o+ +..........o+    o.....o+   o..<XX<.o  ",
"                                                  "
};
