/* XPM */
static char *_5434bf9fcbc4508ffa8ba98e66e7bb0fI5GTW81Bjs9lgx6[] = {
/* columns rows colors chars-per-pixel */
"51 50 86 1 ",
"  c #010101",
". c #070807",
"X c #070808",
"o c #0B0C0B",
"O c #0E100E",
"+ c #10120F",
"@ c #0E1011",
"# c #131514",
"$ c #181311",
"% c #161916",
"& c #181B17",
"* c #141718",
"= c #171B1C",
"- c #191D1A",
"; c #1E221D",
": c #20241F",
"> c #28231F",
", c #1E2324",
"< c #212521",
"1 c #262B26",
"2 c #282D27",
"3 c #212729",
"4 c #242A2C",
"5 c #282E29",
"6 c #2C322E",
"7 c #31332C",
"8 c #272E30",
"9 c #282F31",
"0 c #2D3433",
"q c #2F373A",
"w c #313634",
"e c #333936",
"r c #3B3A33",
"t c #313738",
"y c #333B3B",
"u c #3B3D3B",
"i c #433F3D",
"p c #3D403D",
"a c #42423C",
"s c #4A443C",
"d c #52453D",
"f c #363F41",
"g c #374043",
"h c #394346",
"j c #3E4649",
"k c #3F484A",
"l c #424442",
"z c #4D4541",
"x c #4E4B46",
"c c #404749",
"v c #454C4D",
"b c #494B4B",
"n c #534A41",
"m c #5C4D44",
"M c #4E504F",
"N c #51504D",
"B c #5B544D",
"V c #4A4F50",
"C c #4D5152",
"Z c #535352",
"A c #5A5653",
"S c #585857",
"D c #555758",
"F c #565858",
"G c #5C5D5D",
"H c #604D43",
"J c #665247",
"K c #62544B",
"L c #6A5A4E",
"P c #635A54",
"I c #6C5D53",
"U c #615C5A",
"Y c #725F53",
"T c #64615F",
"R c #6F625B",
"E c #71635B",
"W c #7C6659",
"Q c #78685F",
"! c #6B6561",
"~ c #756963",
"^ c #7C6C64",
"/ c #816E65",
"( c #857066",
") c #8D7467",
"_ c #937668",
"` c #967869",
/* pixels */
"1I^!_`^GGG^```~GGGGTFj0*  ;K(!(~GGG^```RGGGvhhhGp; ",
"IPZbAACVVVCSASCvvVVvvhf=  dPZbACvvCDASAMVvvjhhhkh, ",
"/Zhhhhhhffffffffffffhhj,  KAhhh0,4,14333,,,4,0hhh4.",
"Gbhhhyqyqfftftfffffjhhh,  lVhhy=..o.....o..o.*ghh4 ",
"Gvhhh*X.XXXXXXXXXX9hhhh,  qjhf@*<<1<1:1,1,,1114ph4 ",
"Gvhy*X $Kzfif98=.Xo3hhh,  hbhfo*17LAMbMppy5,111gh4 ",
"GVht o>s/TFCVjhq*#X=hhh,  cbhh34ppTCCCVkgg0;;12gh4 ",
"GVht.<B/GFVfjfhhf9@=hhh,  bVhhhhkCpgppppggpo%12pj4 ",
"GVhq.fUUGvffhhhhhh*=hhh,  bChhhhp1111222555.%14fh4 ",
"vjhq.ii==5fchh3##6#=hhw&  lChhh3Ooooooooo.O #11ph4 ",
"Cjhq.t5  @3yf3o  3O=hh6%  cChh3o.##########%;11gh3 ",
"GVhqOt9@@@%30*@@@1O=hh6#  bbhfo.#21111212>1rrw6gy, ",
"GVhf4MMhhh,  thhg5O-hh6*  lVhfo*21112215111W~Shh=  ",
"kjjqo#ec@l4X<f,-4O%6hhf,  yjhfo&26YPMZCCbppvvkhh=  ",
"hhhq O<< fu3ww*.#%;whhh,  fvq,%<rKPZCCVVkhghhhhh0* ",
"hhhq.--o-yccy0-..<10hhh,  lv8 :1s^khgy080088qghhh4 ",
"hhhy ;1wGlCM5y0* <2wjhh,  0h9.-4pFjhe;      %6hhh4 ",
"hhhy:11rG,4qo1%..:1pCjh,  0h9.;1wkhh4.       *hhh4 ",
"hhhge6225o@# OXX&1pcvhh,  0h0 <16hhh3  O%#%%o#hhh4 ",
"jhhhht64#@o@###;66cMhhh,  0h8 :1whhh3 O;6r11--hhj4 ",
"ghhhhhhhh050hhhhhhhhhhh,  8h9 <16hhh3.<6lM1116hhh4 ",
"5yhhhhhhhffghhhhhhhhhh0&  X48 :20hhh3.1LPy.;16hhh4 ",
"O1000w3=-500w000wwww06=.   ,f,%;whhy;.1xM0 ;16hhh4 ",
" O----o  %&&&-&&&&&&&;.   @9hfo%4406%.1yh0 ;10hhh4 ",
"                          0hhfo=-.:<%o1yh0 ;20jjh4 ",
"               .          0hhfo*1;..+15yh0 ;2eFkh4 ",
"&wuamHsuuuzmmiuuuuufe5;o  0hhg,<11--;21yh0 ;2eGkh8 ",
"nNCZEEUZCZURRZZCCZCDVhy=  0hhhteppppew0ph0 ;1rCkh4 ",
")Zhhhhhhhhhhhhhhhhhhhhh,  0hhhhCSSSFChhhf9 ;16hhh4 ",
"!Vhhhhhhhhhhhhhhhhhhhhh,  0hhhhhjjjjhhhhy, ;16hhh4 ",
"vhhhh,#*##*#@*#**@0hhhh,  lvhhhhy00606666; ;10hhy; ",
"Vjhf,o           .*0hhh,  cChhh0;%%%%%%%%+ ;16hh0- ",
"GVhq  ..##+ooooo...=ggh,  cVhht*          .:10hht- ",
"GVhq  #wGSvghghy11o;hhh,  0hhf@          X1116hhh4 ",
"Gvhq.#wMvvjhhhhgq5;4hhh,  jvhfo X;-;;;;;;;110phhh4 ",
"Gvgf&:lFghhhhhhhp;,0hhh,  bMhfoo-216pmallalyhvhhh4 ",
"GVhf41pChhhhhhhhqX;0hhp,  cVhfo*22wpZQSFFFFkMChhh4 ",
"GVhf410hhhhhhhhhfX=0hg6#  bVhfo%26Svhhhhhhhhhhhhh4 ",
"kjhf51whhhhhhhhhyX;0hh6%  tjhfo&22ljhhhhhhhhhjhht; ",
"hhhf%:whhhhhhhyyy.=0hh6#  0hhh-<11,60t0twwqq0e00,o ",
"hhhq.;0ghhhhhf0qyX=0hh0;  0hhh6111O&;;;;;;;;;;;&o  ",
"hhhq.;0ghhhhg9yhy.;0hhh,  0hhh52111O   .  .        ",
"hhgq ;;*hjhhhgg0O;<0hhh,  0hhh61111<;;;;;;;;:;;;o  ",
"hhgp&;;;===,=-==&12pVhh,  0hhhy65121112<22221155O  ",
"hhhg051,oOOoOoo%11wlCjh,  0hhhhe66rpruepepspwwew=. ",
"hhhhg0555514465554xChhh,  0hhhhhhjFGGGGGGR)TMvGj0; ",
"hhhhhggggpggpgpggghjhhh,  0hhhhhhhjkkkccjcbcjhjhh1 ",
"0ghhhhghhghhghhhhhhhhhy*  3fhhhhhhhhhhhhhhhhhhhhy, ",
";4y0940yyyyypqp0pqpp0p;o  #4eyyyyye04440yyyyyyep,+ ",
" ;1;  #112211111111131X. . %1112121O   ;11125111+  "
};
